<?xml version="1.0" encoding="UTF-8"?>
<svg id="Layer_1" data-name="Layer 1" xmlns="http://www.w3.org/2000/svg" viewBox="0 0 210.73 160.1">
  <defs>
    <style>
      .cls-1, .cls-2, .cls-3 {
        stroke: #574a57;
        stroke-miterlimit: 10;
      }

      .cls-1, .cls-3 {
        fill: #fff;
      }

      .cls-4 {
        font-size: 30.79px;
      }

      .cls-4, .cls-5, .cls-6 {
        fill: #596a63;
      }

      .cls-4, .cls-7 {
        font-family: MyriadPro-Regular, 'Myriad Pro';
      }

      .cls-5 {
        letter-spacing: 0em;
      }

      .cls-5, .cls-6 {
        font-family: MinionConceptRoman-DisplayBold, 'Minion Variable Concept';
        font-size: 29.94px;
        font-variation-settings: 'wght' 700, 'opsz' 36;
      }

      .cls-2 {
        fill: none;
      }

      .cls-2, .cls-3 {
        stroke-width: 3px;
      }

      .cls-7 {
        fill: #231f20;
        font-size: 23.51px;
      }
    </style>
  </defs>
  <text class="cls-7" transform="translate(53 124.99) scale(1.14 1)"><tspan x="0" y="0">P</tspan></text>
  <path class="cls-1" d="M68.81,20.95c-1.23,1.02-1.53,2.42-1.91,4.21-.34,1.59-.91,4.21,.26,7.15,.37,.95,1.99,5.04,5.87,5.74,.35,.06,2.77,.47,4.85-1.02,3.32-2.37,2.69-7.34,2.55-8.43-.09-.73-.93-6.62-5.49-8.3-.18-.07-3.77-1.33-6.13,.64Z"/>
  <path class="cls-3" d="M68.83,20.49c-1.78,1.16-2.44,2.91-2.83,3.97-1.42,3.82-.09,7.35,.29,8.27,.53,1.28,2.29,5.53,6.38,6.29,.31,.06,2.84,.49,5.17-1.02,4.41-2.86,3.38-9.57,3.32-9.93-.07-.43-1.22-6.64-6.2-8.22-.55-.17-3.53-1.05-6.13,.64Z"/>
  <path class="cls-3" d="M137.87,19.67c-2.76-.02-4.6,1.67-5.33,2.33-2.76,2.53-3.04,5.97-3.13,7.02-.04,.45-.11,1.74,.22,3.35,.27,1.28,.6,2.85,1.85,4.28,.48,.54,2.31,2.45,5.01,2.39,1.96-.04,3.36-1.09,4.12-1.66,1.11-.83,1.73-1.72,2.17-2.36,.58-.84,2.14-3.18,2.27-6.54,.05-1.5,.13-3.54-1.21-5.52-.16-.23-2.28-3.26-5.97-3.29Z"/>
  <path class="cls-3" d="M83.15,17.08c.15,.62,2.05,7.82,8.13,9.66,.77,.23,3.03,.88,5.53,0,4.15-1.46,5.59-5.94,6.04-7.36,1.92-5.99-1.09-11.11-1.45-11.7-.85-1.39-3.66-6.01-8.51-6.17-3.95-.13-6.66,2.79-7.23,3.4-4.25,4.57-2.78,11.08-2.51,12.17Z"/>
  <path class="cls-3" d="M107.49,17.42c.14,.84,1.25,7.72,6.45,9.51,2.29,.79,4.36,.24,5,.06,4.39-1.23,6.33-5.5,7.02-7.02,.46-1.01,3.12-6.88,.09-12.43-.47-.86-2.97-5.42-7.53-5.72-3.63-.24-6.25,2.39-7.32,3.47-4.78,4.8-3.79,11.61-3.71,12.13Z"/>
  <path class="cls-2" d="M101.49,40.42c-.68-.89-1.9-2.25-3.83-3.26-.68-.35-5.27-2.64-10.02-.26-.6,.3-4.56,2.37-5.55,7.02-.83,3.87,.95,6.9,1.53,7.79,.24,.36,2.96,4.4,7.79,4.79,3.97,.32,6.89-2.03,8.68-3.51,5.45-4.51,3.79-8.22,8.49-12.57,3.24-3.01,9.43-6.25,14.55-3.89,2.94,1.35,5.55,4.57,5.74,8.49,.25,5.2-3.91,8.32-4.4,8.68-2.51,1.82-5.11,1.96-5.94,1.98-3.94,.07-6.59-2.15-7.28-2.74-1.43-1.24-2.24-2.58-2.68-3.45"/>
  <text class="cls-6" transform="translate(0 93.36) scale(1.39 1)"><tspan x="0" y="0">I</tspan></text>
  <text class="cls-6" transform="translate(20.63 93.36) scale(1.16 1)"><tspan x="0" y="0">N</tspan></text>
  <text class="cls-6" transform="translate(53.48 93.36) scale(1.36 1)"><tspan x="0" y="0">F</tspan></text>
  <text class="cls-6" transform="translate(82.69 93.63) scale(1.39 1)"><tspan x="0" y="0">I</tspan></text>
  <text class="cls-6" transform="translate(103.49 93.36) scale(1.16 1)"><tspan x="0" y="0">N</tspan></text>
  <text class="cls-6" transform="translate(136.54 93.36) scale(1.39 1)"><tspan x="0" y="0">I</tspan></text>
  <text class="cls-5" transform="translate(156.94 93.36) scale(1.3 1)"><tspan x="0" y="0">T</tspan></text>
  <text class="cls-6" transform="translate(186.59 93.36) scale(1.39 1)"><tspan x="0" y="0">Y</tspan></text>
  <text class="cls-4" transform="translate(20.68 114) scale(.67 1)"><tspan x="0" y="0">__</tspan></text>
  <text class="cls-4" transform="translate(168.12 113.27) scale(.67 1)"><tspan x="0" y="0">__</tspan></text>
  <text class="cls-7" transform="translate(53 124.99) scale(1.14 1)"><tspan x="0" y="0">P</tspan></text>
  <text class="cls-7" transform="translate(83.74 126.02) scale(1.14 1)"><tspan x="0" y="0">U</tspan></text>
  <text class="cls-7" transform="translate(117.12 126.02) scale(1.14 1)"><tspan x="0" y="0">P</tspan></text>
  <text class="cls-7" transform="translate(147.7 126.02) scale(1.14 1)"><tspan x="0" y="0">S</tspan></text>
</svg>