<?xml version="1.0" encoding="UTF-8"?>
<svg id="Layer_1" data-name="Layer 1" xmlns="http://www.w3.org/2000/svg" viewBox="0 0 90.26 45.39">
  <defs>
    <style>
      .cls-1, .cls-2 {
        fill: none;
      }

      .cls-1, .cls-2, .cls-3 {
        stroke: #6d6d6d;
        stroke-miterlimit: 10;
      }

      .cls-1, .cls-3 {
        stroke-width: .25px;
      }

      .cls-2 {
        stroke-width: .5px;
      }

      .cls-3 {
        fill: #666;
      }
    </style>
  </defs>
  <path class="cls-2" d="M10.28,32.04c-.05-.61,0-1.11,.06-1.46,.09-.56,.16-.97,.46-1.39,.09-.13,.35-.48,.76-.66,.04-.02,.3-.13,.58-.14,.05,0,.14,0,.23,0,.17,0,.29,0,.3,0,.44,.02,7.05-.09,7.05-.04h0c.13,.01,.33,.05,.55,.15,.73,.34,.99,1.09,1.06,1.31,.07,.19,.15,.5,.14,.9,.03,1.67,.06,3.34,.1,5.01,0,.21-.02,.79-.41,1.37-.43,.63-1.04,.85-1.23,.91-1.41,.01-2.82,.02-4.23,.03-2.02,2.22-2.74,3.05-2.8,3.17,0,0-.01,.02-.02,.02-.05,0-.02-.66-.01-1.53,.01-.94,0-1.86,0-1.86-.8,.03-1.11,.03-1.2,.02,0,0,0,0,0,0-.12,.02,.02,.79-.07,1.46-.04,.29-.15,1.1-.72,1.55-.59,.47-1.13,.11-1.51,.56-.21,.24-.22,.51-.18,1.59,.02,.58,.01,1.17,.02,1.76-1.06-1.04-2.12-2.08-3.18-3.12-2.46-.01-3.79-.02-3.79-.02-.25-.06-.86-.26-1.35-.84-.76-.9-.6-2-.57-2.17,.04-1.3,.07-2.6,.11-3.9-.02,.17,.03-.35,.05-.52,.08-.71,.49-1.28,.53-1.33,.52-.71,1.28-.94,1.56-1.01,1.09,.01,1.97,0,2.57-.01,.9-.02,1.8,0,2.7-.03,.94-.03,1.32-.06,1.88,.11,.35,.11,.98,.31,1.41,.89,.31,.41,.38,.82,.46,1.32,.12,.71,.05,1.12,.02,2.01-.02,.44-.03,1.1,.02,1.91"/>
  <path class="cls-1" d="M2.96,36.04c-.36,0-.65,.42-.65,.8,0,.37,.28,.79,.64,.78,.36,0,.62-.43,.62-.79,0-.36-.26-.78-.61-.79Z"/>
  <path class="cls-1" d="M5.85,36.04c-.36,0-.65,.42-.65,.8,0,.37,.28,.79,.64,.78,.36,0,.62-.43,.62-.79,0-.36-.26-.78-.61-.79Z"/>
  <path class="cls-1" d="M8.95,36.04c-.36,0-.65,.42-.65,.8,0,.37,.28,.79,.64,.78,.36,0,.62-.43,.62-.79,0-.36-.26-.78-.61-.79Z"/>
  <path class="cls-3" d="M13.87,32.72c-.26-.02-.48,.22-.49,.48,0,.25,.2,.5,.46,.5,.26,0,.45-.25,.45-.49,0-.23-.17-.47-.41-.49Z"/>
  <path class="cls-3" d="M16.15,32.72c-.26-.02-.48,.22-.49,.48,0,.25,.2,.5,.46,.5,.26,0,.45-.25,.45-.49,0-.23-.17-.47-.41-.49Z"/>
  <path class="cls-3" d="M18.55,32.72c-.26-.02-.48,.22-.49,.48,0,.25,.2,.5,.46,.5,.26,0,.45-.25,.45-.49,0-.23-.17-.47-.41-.49Z"/>
</svg>