<?xml version="1.0" encoding="UTF-8"?>
<svg id="Layer_1" data-name="Layer 1" xmlns="http://www.w3.org/2000/svg" viewBox="0 0 38.01 20.32">
  <defs>
    <style>
      .cls-1 {
        fill: #fff;
      }

      .cls-2 {
        fill: none;
      }

      .cls-3 {
        fill: #666;
      }
    </style>
  </defs>
  <path class="cls-3" d="M29.58,6.53c-.07,.19,1.32,.46,2.23,1.91,.38,.61,.53,1.37,.83,2.9,.31,1.59,.33,2.38,.86,3.64,.37,.89,.64,1.15,.89,1.31,.74,.47,1.82,.33,2.52-.19,.7-.52,.87-1.31,.99-1.95,.04-.23,.42-2.29-.67-4.21-2.03-3.59-7.52-3.78-7.66-3.41Z"/>
  <path class="cls-3" d="M20.76,6.53c.07,.19-1.32,.46-2.23,1.91-.38,.61-.53,1.37-.83,2.9-.31,1.59-.33,2.38-.86,3.64-.37,.89-.64,1.15-.89,1.31-.74,.47-1.82,.33-2.52-.19-.7-.52-.87-1.31-.99-1.95-.04-.23-.42-2.29,.67-4.21,2.03-3.59,7.52-3.78,7.66-3.41Z"/>
  <path class="cls-3" d="M25.01,6.02c-.55,0-3.55,.02-5.3,2.17-.46,.57-1.1,1.36-1.21,2.49-.09,.95,.22,1.91-.26,3.26-.08,.23-.09,.21-.16,.41-.35,1.11-.13,2.16,.03,2.65,.5,1.47,1.96,2.17,2.68,2.52,4.04,1.95,9.98-1.37,10.6-1.73"/>
  <path class="cls-3" d="M24.89,5.99c.59,0,3.82,.02,5.7,2.17,.5,.57,1.19,1.36,1.3,2.49,.1,.95-.24,1.91,.27,3.25,.09,.23,.1,.21,.17,.41,.38,1.11,.14,2.16-.03,2.65-.52,1.43-2.06,2.15-2.88,2.52-3.17,1.43-6.48,.67-7.9,.24"/>
  <line class="cls-1" x1="5.48" y1="19.08" x2="7.77" y2="19.08"/>
  <path class="cls-2" d="M4.07,.14c-.58,.42,.03,1.51-.22,3.32-.06,.46-.2,1.35-.73,2.27-.68,1.16-1.24,1.04-2.2,2.39C.35,8.91-.1,9.56,.02,10.39c.14,1.01,1.02,1.56,1.09,1.6,.89,.53,2.08,.37,2.71-.18,.42-.36,.52-.82,.82-.8,.28,.02,.32,.42,.71,.79,.58,.53,1.4,.49,1.63,.48,.63-.02,1.61-.31,2.01-1.09,.48-.94-.15-2.07-.48-2.65-.72-1.28-1.37-1.19-2.2-2.52-.67-1.08-.87-2.14-.93-2.49-.32-1.85,.25-3-.38-3.4-.27-.17-.68-.16-.93,.02Z"/>
  <path class="cls-2" d="M3.29,12.51c.03,.1,.38,.07,1.16,.05,1.01-.02,1.44,.01,1.46-.1,.02-.1-.34-.13-.76-.51-.33-.3-.36-.5-.54-.51-.2,0-.26,.22-.67,.57-.4,.34-.68,.41-.65,.49Z"/>
  <g>
    <path class="cls-1" d="M24.74,7.41c-.58,.42,.03,1.51-.22,3.32-.06,.46-.2,1.35-.73,2.27-.68,1.16-1.24,1.04-2.2,2.39-.56,.79-1.01,1.44-.89,2.27,.14,1.01,1.02,1.56,1.09,1.6,.89,.53,2.08,.37,2.71-.18,.42-.36,.52-.82,.82-.8,.28,.02,.32,.42,.71,.79,.58,.53,1.4,.49,1.63,.48,.63-.02,1.61-.31,2.01-1.09,.48-.94-.15-2.07-.48-2.65-.72-1.28-1.37-1.19-2.2-2.52-.67-1.08-.87-2.14-.93-2.49-.32-1.85,.25-3-.38-3.4-.27-.17-.68-.16-.93,.02Z"/>
    <path class="cls-1" d="M23.96,19.78c.03,.1,.38,.07,1.16,.05,1.01-.02,1.44,.01,1.46-.1,.02-.1-.34-.13-.76-.51-.33-.3-.36-.5-.54-.51-.2,0-.26,.22-.67,.57-.4,.34-.68,.41-.65,.49Z"/>
  </g>
  <path class="cls-1" d="M20.52,10.55c-.21,.28-.34,.72-.16,1.11,.24,.54,.91,.69,1.36,.63,.11-.01,.6-.08,.87-.49,.31-.46,.21-1.16-.21-1.53-.55-.49-1.46-.25-1.85,.28Z"/>
  <path class="cls-3" d="M21.38,11.09c-.15,.2-.17,.52-.01,.73,.22,.3,.73,.3,1.01,.04,.2-.19,.29-.54,.15-.77-.21-.34-.88-.36-1.15,0Z"/>
  <path class="cls-1" d="M27.59,10.55c-.21,.28-.34,.72-.16,1.11,.24,.54,.91,.69,1.36,.63,.11-.01,.6-.08,.87-.49,.31-.46,.21-1.16-.21-1.53-.55-.49-1.46-.25-1.85,.28Z"/>
  <path class="cls-3" d="M27.69,11.09c-.15,.2-.17,.52-.01,.73,.22,.3,.73,.3,1.01,.04,.2-.19,.29-.54,.15-.77-.21-.34-.88-.36-1.15,0Z"/>
  <path class="cls-3" d="M24.34,16.79c-.17,.13,.04,.49-.11,.61-.12,.1-.44,.01-.6-.19-.21-.28-.09-.75,.11-1.02,.36-.5,1.07-.52,1.51-.53,.28,0,.74-.01,1.18,.27,.15,.1,.42,.27,.53,.6,.08,.23,.11,.64-.15,.83-.12,.09-.33,.17-.45,.09-.19-.13,0-.54-.19-.66-.09-.06-.24-.04-.32,.03-.13,.11-.03,.29-.13,.43-.17,.24-.76,.25-.95,0-.13-.16-.03-.38-.18-.47-.07-.04-.19-.04-.26,.02Z"/>
</svg>