<?xml version="1.0" encoding="UTF-8"?>
<svg id="Layer_1" data-name="Layer 1" xmlns="http://www.w3.org/2000/svg" viewBox="0 0 92.99 47.56">
  <defs>
    <style>
      .cls-1 {
        stroke-width: 2px;
      }

      .cls-1, .cls-2 {
        fill: none;
        stroke: #6d6d6d;
        stroke-miterlimit: 10;
      }

      .cls-2 {
        stroke-width: 3px;
      }
    </style>
  </defs>
  <path class="cls-2" d="M8.02,37.48c-1.2-2.82-.43-5.32-.23-5.92,.24-.71,.99-2.61,2.99-4.16,3.74-2.89,8.43-1.9,8.72-1.83,3.65,.83,6.91,3.65,7.53,7.46,.75,4.58-2.78,7.71-2.99,7.89-4.18,3.59-9.78,1.9-10,1.83-.54-.17-4.4-1.47-6.01-5.27Z"/>
  <path class="cls-2" d="M8.13,38.35c-1.37,.91-2.49,1.6-3.22,2.04-2.12,1.28-3.46,1.96-3.41,2.87,.02,.38,.28,.85,.35,.97,.07,.12,.34,.59,.89,1.04,.36,.29,.89,.72,1.51,.79,.51,.05,.87-.16,2.52-1.36,1.42-1.04,2.58-1.94,2.68-2.01,.68-.52,1.24-.95,1.59-1.22"/>
  <path class="cls-1" d="M23.56,33.29c.03,.28,.05,.67,0,1.13-.04,.36-.16,1.38-.85,2.45-.33,.51-1.21,1.86-3.23,2.54-2.05,.69-3.93,.24-4.45,.1"/>
</svg>